<svg width="32" height="32" viewBox="0 0 32 32" fill="none" xmlns="http://www.w3.org/2000/svg">
<path d="M26.7084 27.7201C27.3218 28.3334 28.2684 27.3867 27.6551 26.7867L22.6551 21.7734C24.409 19.8328 25.3785 17.3092 25.3751 14.6934C25.3751 8.84008 20.6151 4.08008 14.7618 4.08008C8.90844 4.08008 4.14844 8.84008 4.14844 14.6934C4.14844 20.5467 8.90844 25.3067 14.7618 25.3067C17.4018 25.3067 19.8418 24.3334 21.7084 22.7201L26.7084 27.7201ZM5.48044 14.6934C5.48044 9.57341 9.65377 5.41341 14.7604 5.41341C19.8804 5.41341 24.0404 9.57341 24.0404 14.6934C24.0404 19.8134 19.8804 23.9734 14.7604 23.9734C9.65377 23.9734 5.48044 19.8134 5.48044 14.6934Z" fill="#EDEDED"/>
</svg>
